<mxfile host="Electron" modified="2024-01-23T04:05:32.259Z" agent="Mozilla/5.0 (Windows NT 10.0; Win64; x64) AppleWebKit/537.36 (KHTML, like Gecko) draw.io/21.5.1 Chrome/112.0.5615.204 Electron/24.6.0 Safari/537.36" etag="JyfK0u6aDN8_L_fbVYxs" version="21.5.1" type="device">
  <diagram name="第 1 页" id="u_aByEt7D8UuE2G7L2YK">
    <mxGraphModel dx="1461" dy="823" grid="1" gridSize="10" guides="1" tooltips="1" connect="1" arrows="1" fold="1" page="1" pageScale="1" pageWidth="827" pageHeight="1169" math="0" shadow="0">
      <root>
        <mxCell id="0" />
        <mxCell id="1" parent="0" />
        <mxCell id="qPwFTRK3RNc3fCcEPeHC-1" value="" style="line;strokeWidth=4;html=1;perimeter=backbonePerimeter;points=[];outlineConnect=0;" vertex="1" parent="1">
          <mxGeometry x="360" y="390" width="330" height="20" as="geometry" />
        </mxCell>
        <mxCell id="qPwFTRK3RNc3fCcEPeHC-3" value="" style="line;strokeWidth=4;direction=south;html=1;perimeter=backbonePerimeter;points=[];outlineConnect=0;" vertex="1" parent="1">
          <mxGeometry x="350" y="400" width="20" height="160" as="geometry" />
        </mxCell>
        <mxCell id="qPwFTRK3RNc3fCcEPeHC-4" value="" style="line;strokeWidth=4;html=1;perimeter=backbonePerimeter;points=[];outlineConnect=0;" vertex="1" parent="1">
          <mxGeometry x="360" y="550" width="330" height="20" as="geometry" />
        </mxCell>
        <mxCell id="qPwFTRK3RNc3fCcEPeHC-5" value="登录页&lt;br&gt;(replaceURL)" style="rounded=0;whiteSpace=wrap;html=1;" vertex="1" parent="1">
          <mxGeometry x="380" y="420" width="70" height="120" as="geometry" />
        </mxCell>
        <mxCell id="qPwFTRK3RNc3fCcEPeHC-6" value="主页" style="rounded=0;whiteSpace=wrap;html=1;" vertex="1" parent="1">
          <mxGeometry x="460" y="420" width="70" height="120" as="geometry" />
        </mxCell>
        <mxCell id="qPwFTRK3RNc3fCcEPeHC-7" value="商品详情页" style="rounded=0;whiteSpace=wrap;html=1;" vertex="1" parent="1">
          <mxGeometry x="540" y="420" width="70" height="120" as="geometry" />
        </mxCell>
        <mxCell id="qPwFTRK3RNc3fCcEPeHC-8" value="加入购物车页/结算页" style="rounded=0;whiteSpace=wrap;html=1;" vertex="1" parent="1">
          <mxGeometry x="620" y="420" width="70" height="120" as="geometry" />
        </mxCell>
      </root>
    </mxGraphModel>
  </diagram>
</mxfile>
